<svg version="1.1" id="Layer_1" xmlns="http://www.w3.org/2000/svg" xmlns:xlink="http://www.w3.org/1999/xlink" x="0px" y="0px"
	 width="100%" viewBox="0 0 1407 1407" enable-background="new 0 0 1407 1407" xml:space="preserve">
<path fill="#FFFFFF" opacity="1.000000" stroke="none" 
	d="
M687.000000,1408.000000 
	C458.000031,1408.000000 229.500076,1408.000000 1.000092,1408.000000 
	C1.000061,939.000122 1.000061,470.000244 1.000031,1.000281 
	C469.999786,1.000187 938.999573,1.000187 1407.999512,1.000094 
	C1407.999756,469.999725 1407.999756,938.999451 1407.999878,1407.999512 
	C1167.833374,1408.000000 927.666687,1408.000000 687.000000,1408.000000 
M760.990601,738.002991 
	C760.990601,738.002991 761.018433,738.012146 761.140076,737.079712 
	C761.149109,707.502136 761.182312,677.924500 761.157043,648.346924 
	C761.144165,633.228577 761.026550,618.110413 761.637024,602.763916 
	C763.405823,601.852844 765.227844,601.031433 766.935547,600.017456 
	C798.573914,581.233521 830.199829,562.428528 861.825623,543.623352 
	C872.073547,537.529785 882.313599,531.423096 893.223022,524.925903 
	C849.264771,498.736115 805.987488,472.951996 763.171387,446.599762 
	C763.574219,446.308533 763.947144,445.959137 764.384155,445.734436 
	C800.506897,427.161133 836.642090,408.611786 872.755249,390.019775 
	C879.143005,386.731140 885.440491,383.267029 892.014771,379.758514 
	C889.511108,378.046539 887.596252,376.420685 885.421753,375.297211 
	C845.329773,354.581909 805.229187,333.882751 765.022400,313.392090 
	C763.072510,312.398346 759.592041,312.430756 757.732849,313.526642 
	C716.138306,338.044434 674.674438,362.783783 633.179565,387.470703 
	C600.993042,406.619720 568.774414,425.714996 536.625244,444.926514 
	C529.589844,449.130676 522.788818,453.726868 515.453857,458.975311 
	C515.397827,481.746002 515.295288,504.516663 515.299438,527.287354 
	C515.303284,548.561218 515.420349,569.835144 515.245972,591.416199 
	C515.188965,591.716614 515.299011,591.931335 515.835693,592.720642 
	C516.640747,593.299805 517.407104,593.944214 518.256470,594.448792 
	C552.527832,614.806946 586.818726,635.132385 621.059631,655.541565 
	C623.528198,657.013000 625.639465,659.083740 627.224060,661.034973 
	C590.122925,683.090271 553.021851,705.145569 515.171570,727.646240 
	C524.845581,733.374023 533.702393,738.597107 542.539368,743.853394 
	C614.176575,786.463318 685.806824,829.085022 757.471680,871.648254 
	C758.754150,872.409912 760.439026,872.494019 762.650757,872.874023 
	C764.251160,871.986633 765.876587,871.141357 767.448303,870.205688 
	C807.935852,846.103149 848.390991,821.945862 888.952332,797.968079 
	C892.144226,796.081238 893.153381,794.076294 893.142883,790.494080 
	C893.020813,749.012146 893.066833,707.529663 893.051697,666.047363 
	C893.051086,664.482788 892.881653,662.918213 892.762085,660.855408 
	C891.210327,661.626221 890.163757,662.064026 889.197815,662.637756 
	C856.275635,682.188965 823.388794,701.799805 790.428711,721.286743 
	C780.720459,727.026611 770.808289,732.421692 760.990601,738.002991 
M456.683655,943.631592 
	C453.966644,936.829102 451.305939,930.002991 448.481079,923.245605 
	C447.968262,922.019043 446.819916,920.178955 445.902924,920.141541 
	C439.335236,919.873352 432.751495,919.998169 426.315186,919.998169 
	C426.151337,921.134216 426.062866,921.462280 426.062622,921.790405 
	C426.048828,939.955627 426.039429,958.120911 426.036438,976.286133 
	C426.034882,985.654602 435.518829,993.422058 445.632568,991.573120 
	C445.632568,981.156738 445.632568,970.585815 445.632568,960.014832 
	C446.068481,959.957275 446.504395,959.899658 446.940308,959.842041 
	C449.688141,967.086182 452.409210,974.340637 455.207642,981.565186 
	C455.735596,982.928101 456.454742,985.201477 457.285828,985.296082 
	C461.388550,985.763062 465.641693,986.132507 469.660339,985.457153 
	C471.085815,985.217590 472.247833,982.031189 473.099091,980.008545 
	C475.881470,973.397339 478.465332,966.702637 481.125488,960.039978 
	C481.594910,960.148987 482.064362,960.257996 482.533783,960.367004 
	C482.533783,970.906372 482.533783,981.445740 482.533783,991.924744 
	C489.219696,991.924744 495.289795,991.924744 501.306641,991.924744 
	C501.306641,967.783691 501.306641,944.017700 501.306641,919.966187 
	C495.001953,919.966187 489.004761,919.798035 483.030731,920.094910 
	C481.686310,920.161743 479.768921,921.572937 479.228882,922.839905 
	C475.967010,930.492676 473.057495,938.294922 469.971344,946.023621 
	C468.087769,950.740540 466.098877,955.415527 463.742462,961.112183 
	C461.177582,954.774048 459.068756,949.562805 456.683655,943.631592 
M639.661621,970.546631 
	C639.661621,968.431274 639.661621,966.315979 639.661621,964.293884 
	C647.005676,963.221619 649.011292,964.123657 651.299805,970.274414 
	C653.152283,975.253357 654.059387,980.602661 656.117371,985.479004 
	C657.225830,988.105530 659.622070,991.692993 661.872070,992.041809 
	C667.815979,992.963196 673.997253,992.353821 680.066223,992.353821 
	C674.993713,981.626404 670.158936,971.401917 665.173706,960.859070 
	C664.638062,961.367615 664.831360,961.097961 665.093262,960.947876 
	C675.433167,955.020081 679.467285,947.885864 677.833923,938.391541 
	C676.246155,929.162781 668.964233,921.646179 658.068298,920.766907 
	C645.718933,919.770203 633.227234,920.536926 620.284241,920.536926 
	C620.284241,922.234253 620.284119,924.027649 620.284302,925.820984 
	C620.285767,942.640015 620.286438,959.459106 620.289001,976.278137 
	C620.290405,985.463440 629.826965,993.357727 639.665161,991.775757 
	C639.665161,985.096680 639.665161,978.317505 639.661621,970.546631 
M764.203918,980.678528 
	C768.594849,971.617126 767.743652,962.048767 767.636719,952.599487 
	C756.369568,952.599487 745.812805,952.599487 735.241943,952.599487 
	C735.241943,956.747986 735.241943,960.482178 735.241943,964.794312 
	C739.842896,964.794312 744.088989,964.794312 748.777466,964.794312 
	C748.457031,967.709839 748.395935,970.039429 747.915344,972.279053 
	C746.826721,977.353271 743.521973,980.222473 738.604431,980.533875 
	C733.727417,980.842896 730.428467,978.189331 729.114868,973.929871 
	C725.607971,962.558899 725.527100,950.929382 728.460022,939.440918 
	C729.499146,935.370544 732.820312,932.635620 737.212158,932.254456 
	C741.748657,931.860718 744.658997,934.576050 746.678650,938.346863 
	C747.378601,939.653748 747.910828,941.050354 748.639038,942.671997 
	C753.950134,942.671997 759.270081,942.682007 764.589783,942.661133 
	C765.386047,942.658020 766.181763,942.509766 767.761414,942.348755 
	C766.890747,939.521606 766.429138,936.928833 765.330627,934.642151 
	C760.133850,923.824219 745.434143,917.022156 732.661682,919.431335 
	C721.447937,921.546570 712.361572,926.734924 709.338928,938.483582 
	C706.260986,950.447021 706.458740,962.707703 709.941467,974.556519 
	C713.286072,985.935974 721.756165,992.224670 733.333557,993.404053 
	C745.355164,994.628540 756.789612,993.178040 764.203918,980.678528 
M589.668213,990.872681 
	C589.668213,987.105835 589.668213,983.339050 589.668213,979.090332 
	C577.906921,979.090332 566.809937,979.090332 555.752930,979.090332 
	C555.752930,973.196289 555.752930,967.808777 555.752930,962.022522 
	C565.472595,962.022522 574.743958,962.022522 583.967041,962.022522 
	C583.967041,957.526001 583.967041,953.450195 583.967041,948.864136 
	C574.406738,948.864136 565.166748,948.864136 555.299438,948.864136 
	C555.299438,945.064697 555.562012,941.750793 555.235352,938.496094 
	C554.789856,934.057617 556.460510,932.769653 560.852600,932.921082 
	C570.297180,933.246704 579.760620,933.020996 589.383057,933.020996 
	C589.383057,928.390747 589.383057,924.326111 589.383057,920.249512 
	C571.452698,920.249512 553.861389,920.249512 535.970581,920.249512 
	C535.970581,937.349792 536.442566,954.181946 535.769348,970.968140 
	C535.437988,979.229370 537.086609,985.612671 544.496094,989.697144 
	C546.689453,990.906250 549.201599,992.183777 551.602783,992.255737 
	C561.256714,992.544861 570.924805,992.424866 580.586731,992.342041 
	C583.532043,992.316833 586.474182,991.925964 589.668213,990.872681 
M871.848877,944.384766 
	C871.848877,940.773254 871.848877,937.161743 871.848877,932.972168 
	C883.548218,932.972168 894.619812,932.972168 905.855835,932.972168 
	C905.855835,928.330383 905.855835,924.290894 905.855835,920.138550 
	C888.039429,920.138550 870.578552,920.138550 852.601379,920.138550 
	C852.601379,921.944885 852.601929,923.575745 852.601257,925.206604 
	C852.595276,940.864624 853.019226,956.539673 852.397888,972.173218 
	C852.096252,979.762573 854.299133,984.902466 860.361694,989.422791 
	C864.144653,992.243530 867.457458,992.982117 872.122070,991.653748 
	C872.122070,982.145874 872.122070,972.742065 872.122070,962.841736 
	C882.014587,962.841736 891.415588,962.841736 900.666809,962.841736 
	C900.666809,958.399109 900.666809,954.479675 900.666809,950.102295 
	C891.091492,950.102295 881.832825,950.102295 872.222168,950.102295 
	C872.074707,948.223511 871.961792,946.785278 871.848877,944.384766 
M948.802185,922.342773 
	C947.878662,921.555603 946.978210,920.120789 946.027832,920.086914 
	C940.130371,919.876770 934.221741,919.981201 927.617493,919.981201 
	C933.668335,931.603516 939.047424,942.661560 945.123047,953.322571 
	C948.556519,959.347412 950.705750,965.389709 949.687134,972.247681 
	C948.601685,979.554871 951.146667,984.690857 957.135132,989.143066 
	C960.870850,991.920410 964.140686,993.070618 968.799805,991.843994 
	C968.799805,989.130676 969.050659,986.466064 968.758179,983.862549 
	C967.118652,969.266907 970.319824,956.040283 978.442810,943.657104 
	C983.217224,936.378723 986.681091,928.240662 991.005798,919.970337 
	C985.004639,919.970337 979.838867,920.162231 974.696716,919.897461 
	C971.680176,919.742065 970.272949,920.878235 969.142761,923.571838 
	C966.213623,930.552612 962.967712,937.400513 959.457336,945.166199 
	C955.723572,937.185547 952.420349,930.125122 948.802185,922.342773 
M799.172913,964.498779 
	C799.172852,966.493408 799.365479,968.510132 799.138855,970.478699 
	C798.252014,978.180725 799.725159,984.427734 806.837830,989.264709 
	C810.688354,991.883301 813.940125,992.780823 818.051270,991.904419 
	C818.051270,967.827209 818.051270,944.011902 818.051270,920.326904 
	C811.603638,920.326904 805.543152,920.326904 799.172974,920.326904 
	C799.172974,934.958069 799.172974,949.228638 799.172913,964.498779 
z"/>
<path fill="#39B6FE" opacity="1.000000" stroke="none" 
	d="
M515.879822,458.142487 
	C522.788818,453.726868 529.589844,449.130676 536.625244,444.926514 
	C568.774414,425.714996 600.993042,406.619720 633.179565,387.470703 
	C674.674438,362.783783 716.138306,338.044434 757.732849,313.526642 
	C759.592041,312.430756 763.072510,312.398346 765.022400,313.392090 
	C805.229187,333.882751 845.329773,354.581909 885.421753,375.297211 
	C887.596252,376.420685 889.511108,378.046539 892.014771,379.758514 
	C885.440491,383.267029 879.143005,386.731140 872.755249,390.019775 
	C836.642090,408.611786 800.506897,427.161133 764.384155,445.734436 
	C763.947144,445.959137 763.574219,446.308533 762.789185,447.025269 
	C762.032288,447.612946 761.657593,447.775116 761.005371,447.770142 
	C759.373047,448.056122 757.883362,448.282104 756.683044,448.995239 
	C715.751892,473.313812 674.840820,497.666199 633.968079,522.082642 
	C632.365295,523.040100 631.166504,524.673889 629.481201,525.853394 
	C627.721863,524.630249 626.343628,523.406677 624.787354,522.483154 
	C602.094910,509.016602 579.384827,495.579895 556.665955,482.158112 
	C543.082275,474.133118 529.475952,466.146393 515.879822,458.142487 
z"/>
<path fill="#0297B2" opacity="1.000000" stroke="none" 
	d="
M515.666870,458.558899 
	C529.475952,466.146393 543.082275,474.133118 556.665955,482.158112 
	C579.384827,495.579895 602.094910,509.016602 624.787354,522.483154 
	C626.343628,523.406677 627.721863,524.630249 629.713501,526.134766 
	C664.056885,546.441467 697.855042,566.352600 731.691589,586.198364 
	C741.424927,591.907227 751.268799,597.427673 761.027832,603.043335 
	C760.993652,603.052124 760.956238,602.992126 760.956238,602.992126 
	C761.026550,618.110413 761.144165,633.228577 761.157043,648.346924 
	C761.182312,677.924500 761.149109,707.502136 760.706665,737.558228 
	C748.945557,731.536560 737.526978,725.188965 726.307678,718.506836 
	C696.557495,700.788086 666.909363,682.897888 637.169739,665.161377 
	C634.266296,663.429688 631.009644,662.290161 627.916870,660.875854 
	C625.639465,659.083740 623.528198,657.013000 621.059631,655.541565 
	C586.818726,635.132385 552.527832,614.806946 518.256470,594.448792 
	C517.407104,593.944214 516.640747,593.299805 515.818359,592.238281 
	C515.846191,591.467957 515.741699,591.252319 515.487610,591.109009 
	C515.420349,569.835144 515.303284,548.561218 515.299438,527.287354 
	C515.295288,504.516663 515.397827,481.746002 515.666870,458.558899 
z"/>
<path fill="#014BAD" opacity="1.000000" stroke="none" 
	d="
M627.570435,660.955444 
	C631.009644,662.290161 634.266296,663.429688 637.169739,665.161377 
	C666.909363,682.897888 696.557495,700.788086 726.307678,718.506836 
	C737.526978,725.188965 748.945557,731.536560 760.645874,738.024414 
	C761.018433,738.012146 760.990601,738.002991 760.977051,738.459839 
	C760.981079,781.304688 760.984558,823.692688 761.055420,866.080627 
	C761.059204,868.352295 761.629578,870.623108 761.936157,872.894287 
	C760.439026,872.494019 758.754150,872.409912 757.471680,871.648254 
	C685.806824,829.085022 614.176575,786.463318 542.539368,743.853394 
	C533.702393,738.597107 524.845581,733.374023 515.171570,727.646240 
	C553.021851,705.145569 590.122925,683.090271 627.570435,660.955444 
z"/>
<path fill="#0297B2" opacity="1.000000" stroke="none" 
	d="
M762.293457,872.884155 
	C761.629578,870.623108 761.059204,868.352295 761.055420,866.080627 
	C760.984558,823.692688 760.981079,781.304688 760.976501,738.445679 
	C770.808289,732.421692 780.720459,727.026611 790.428711,721.286743 
	C823.388794,701.799805 856.275635,682.188965 889.197815,662.637756 
	C890.163757,662.064026 891.210327,661.626221 892.762085,660.855408 
	C892.881653,662.918213 893.051086,664.482788 893.051697,666.047363 
	C893.066833,707.529663 893.020813,749.012146 893.142883,790.494080 
	C893.153381,794.076294 892.144226,796.081238 888.952332,797.968079 
	C848.390991,821.945862 807.935852,846.103149 767.448303,870.205688 
	C765.876587,871.141357 764.251160,871.986633 762.293457,872.884155 
z"/>
<path fill="#014BAD" opacity="1.000000" stroke="none" 
	d="
M761.282837,447.937256 
	C761.657593,447.775116 762.032288,447.612946 762.558594,447.309326 
	C805.987488,472.951996 849.264771,498.736115 893.223022,524.925903 
	C882.313599,531.423096 872.073547,537.529785 861.825623,543.623352 
	C830.199829,562.428528 798.573914,581.233521 766.935547,600.017456 
	C765.227844,601.031433 763.405823,601.852844 761.296631,602.878052 
	C760.956238,602.992126 760.993652,603.052124 761.091187,602.575745 
	C761.220093,550.711975 761.251465,499.324615 761.282837,447.937256 
z"/>
<path fill="#094EAC" opacity="1.000000" stroke="none" 
	d="
M456.821777,943.991577 
	C459.068756,949.562805 461.177582,954.774048 463.742462,961.112183 
	C466.098877,955.415527 468.087769,950.740540 469.971344,946.023621 
	C473.057495,938.294922 475.967010,930.492676 479.228882,922.839905 
	C479.768921,921.572937 481.686310,920.161743 483.030731,920.094910 
	C489.004761,919.798035 495.001953,919.966187 501.306641,919.966187 
	C501.306641,944.017700 501.306641,967.783691 501.306641,991.924744 
	C495.289795,991.924744 489.219696,991.924744 482.533783,991.924744 
	C482.533783,981.445740 482.533783,970.906372 482.533783,960.367004 
	C482.064362,960.257996 481.594910,960.148987 481.125488,960.039978 
	C478.465332,966.702637 475.881470,973.397339 473.099091,980.008545 
	C472.247833,982.031189 471.085815,985.217590 469.660339,985.457153 
	C465.641693,986.132507 461.388550,985.763062 457.285828,985.296082 
	C456.454742,985.201477 455.735596,982.928101 455.207642,981.565186 
	C452.409210,974.340637 449.688141,967.086182 446.940308,959.842041 
	C446.504395,959.899658 446.068481,959.957275 445.632568,960.014832 
	C445.632568,970.585815 445.632568,981.156738 445.632568,991.573120 
	C435.518829,993.422058 426.034882,985.654602 426.036438,976.286133 
	C426.039429,958.120911 426.048828,939.955627 426.062622,921.790405 
	C426.062866,921.462280 426.151337,921.134216 426.315186,919.998169 
	C432.751495,919.998169 439.335236,919.873352 445.902924,920.141541 
	C446.819916,920.178955 447.968262,922.019043 448.481079,923.245605 
	C451.305939,930.002991 453.966644,936.829102 456.821777,943.991577 
z"/>
<path fill="#094EAC" opacity="1.000000" stroke="none" 
	d="
M639.663391,971.042480 
	C639.665161,978.317505 639.665161,985.096680 639.665161,991.775757 
	C629.826965,993.357727 620.290405,985.463440 620.289001,976.278137 
	C620.286438,959.459106 620.285767,942.640015 620.284302,925.820984 
	C620.284119,924.027649 620.284241,922.234253 620.284241,920.536926 
	C633.227234,920.536926 645.718933,919.770203 658.068298,920.766907 
	C668.964233,921.646179 676.246155,929.162781 677.833923,938.391541 
	C679.467285,947.885864 675.433167,955.020081 665.093262,960.947876 
	C664.831360,961.097961 664.638062,961.367615 665.173706,960.859070 
	C670.158936,971.401917 674.993713,981.626404 680.066223,992.353821 
	C673.997253,992.353821 667.815979,992.963196 661.872070,992.041809 
	C659.622070,991.692993 657.225830,988.105530 656.117371,985.479004 
	C654.059387,980.602661 653.152283,975.253357 651.299805,970.274414 
	C649.011292,964.123657 647.005676,963.221619 639.661621,964.293884 
	C639.661621,966.315979 639.661621,968.431274 639.663391,971.042480 
M639.658630,948.454041 
	C640.281372,949.403076 640.865906,951.138733 641.533203,951.171143 
	C645.316711,951.354736 649.222656,951.645935 652.890381,950.914795 
	C657.452148,950.005371 659.043762,946.232666 658.926147,941.867126 
	C658.807495,937.465698 656.896606,933.909607 652.292236,933.271301 
	C648.303894,932.718445 644.178223,933.156372 639.650513,933.156372 
	C639.650513,938.253662 639.650513,942.855408 639.658630,948.454041 
z"/>
<path fill="#094EAC" opacity="1.000000" stroke="none" 
	d="
M764.046265,981.018494 
	C756.789612,993.178040 745.355164,994.628540 733.333557,993.404053 
	C721.756165,992.224670 713.286072,985.935974 709.941467,974.556519 
	C706.458740,962.707703 706.260986,950.447021 709.338928,938.483582 
	C712.361572,926.734924 721.447937,921.546570 732.661682,919.431335 
	C745.434143,917.022156 760.133850,923.824219 765.330627,934.642151 
	C766.429138,936.928833 766.890747,939.521606 767.761414,942.348755 
	C766.181763,942.509766 765.386047,942.658020 764.589783,942.661133 
	C759.270081,942.682007 753.950134,942.671997 748.639038,942.671997 
	C747.910828,941.050354 747.378601,939.653748 746.678650,938.346863 
	C744.658997,934.576050 741.748657,931.860718 737.212158,932.254456 
	C732.820312,932.635620 729.499146,935.370544 728.460022,939.440918 
	C725.527100,950.929382 725.607971,962.558899 729.114868,973.929871 
	C730.428467,978.189331 733.727417,980.842896 738.604431,980.533875 
	C743.521973,980.222473 746.826721,977.353271 747.915344,972.279053 
	C748.395935,970.039429 748.457031,967.709839 748.777466,964.794312 
	C744.088989,964.794312 739.842896,964.794312 735.241943,964.794312 
	C735.241943,960.482178 735.241943,956.747986 735.241943,952.599487 
	C745.812805,952.599487 756.369568,952.599487 767.636719,952.599487 
	C767.743652,962.048767 768.594849,971.617126 764.046265,981.018494 
z"/>
<path fill="#094EAC" opacity="1.000000" stroke="none" 
	d="
M589.542969,991.287598 
	C586.474182,991.925964 583.532043,992.316833 580.586731,992.342041 
	C570.924805,992.424866 561.256714,992.544861 551.602783,992.255737 
	C549.201599,992.183777 546.689453,990.906250 544.496094,989.697144 
	C537.086609,985.612671 535.437988,979.229370 535.769348,970.968140 
	C536.442566,954.181946 535.970581,937.349792 535.970581,920.249512 
	C553.861389,920.249512 571.452698,920.249512 589.383057,920.249512 
	C589.383057,924.326111 589.383057,928.390747 589.383057,933.020996 
	C579.760620,933.020996 570.297180,933.246704 560.852600,932.921082 
	C556.460510,932.769653 554.789856,934.057617 555.235352,938.496094 
	C555.562012,941.750793 555.299438,945.064697 555.299438,948.864136 
	C565.166748,948.864136 574.406738,948.864136 583.967041,948.864136 
	C583.967041,953.450195 583.967041,957.526001 583.967041,962.022522 
	C574.743958,962.022522 565.472595,962.022522 555.752930,962.022522 
	C555.752930,967.808777 555.752930,973.196289 555.752930,979.090332 
	C566.809937,979.090332 577.906921,979.090332 589.668213,979.090332 
	C589.668213,983.339050 589.668213,987.105835 589.542969,991.287598 
z"/>
<path fill="#094EAC" opacity="1.000000" stroke="none" 
	d="
M871.848877,944.865906 
	C871.961792,946.785278 872.074707,948.223511 872.222168,950.102295 
	C881.832825,950.102295 891.091492,950.102295 900.666809,950.102295 
	C900.666809,954.479675 900.666809,958.399109 900.666809,962.841736 
	C891.415588,962.841736 882.014587,962.841736 872.122070,962.841736 
	C872.122070,972.742065 872.122070,982.145874 872.122070,991.653748 
	C867.457458,992.982117 864.144653,992.243530 860.361694,989.422791 
	C854.299133,984.902466 852.096252,979.762573 852.397888,972.173218 
	C853.019226,956.539673 852.595276,940.864624 852.601257,925.206604 
	C852.601929,923.575745 852.601379,921.944885 852.601379,920.138550 
	C870.578552,920.138550 888.039429,920.138550 905.855835,920.138550 
	C905.855835,924.290894 905.855835,928.330383 905.855835,932.972168 
	C894.619812,932.972168 883.548218,932.972168 871.848877,932.972168 
	C871.848877,937.161743 871.848877,940.773254 871.848877,944.865906 
z"/>
<path fill="#094EAC" opacity="1.000000" stroke="none" 
	d="
M948.959656,922.703735 
	C952.420349,930.125122 955.723572,937.185547 959.457336,945.166199 
	C962.967712,937.400513 966.213623,930.552612 969.142761,923.571838 
	C970.272949,920.878235 971.680176,919.742065 974.696716,919.897461 
	C979.838867,920.162231 985.004639,919.970337 991.005798,919.970337 
	C986.681091,928.240662 983.217224,936.378723 978.442810,943.657104 
	C970.319824,956.040283 967.118652,969.266907 968.758179,983.862549 
	C969.050659,986.466064 968.799805,989.130676 968.799805,991.843994 
	C964.140686,993.070618 960.870850,991.920410 957.135132,989.143066 
	C951.146667,984.690857 948.601685,979.554871 949.687134,972.247681 
	C950.705750,965.389709 948.556519,959.347412 945.123047,953.322571 
	C939.047424,942.661560 933.668335,931.603516 927.617493,919.981201 
	C934.221741,919.981201 940.130371,919.876770 946.027832,920.086914 
	C946.978210,920.120789 947.878662,921.555603 948.959656,922.703735 
z"/>
<path fill="#094EAC" opacity="1.000000" stroke="none" 
	d="
M799.172974,963.999023 
	C799.172974,949.228638 799.172974,934.958069 799.172974,920.326904 
	C805.543152,920.326904 811.603638,920.326904 818.051270,920.326904 
	C818.051270,944.011902 818.051270,967.827209 818.051270,991.904419 
	C813.940125,992.780823 810.688354,991.883301 806.837830,989.264709 
	C799.725159,984.427734 798.252014,978.180725 799.138855,970.478699 
	C799.365479,968.510132 799.172852,966.493408 799.172974,963.999023 
z"/>
<path fill="#39B6FE" opacity="1.000000" stroke="none" 
	d="
M515.366821,591.262573 
	C515.741699,591.252319 515.846191,591.467957 515.688660,591.908203 
	C515.299011,591.931335 515.188965,591.716614 515.366821,591.262573 
z"/>
<path fill="#FCFEFF" opacity="1.000000" stroke="none" 
	d="
M761.005371,447.770111 
	C761.251465,499.324615 761.220093,550.711975 761.125366,602.566895 
	C751.268799,597.427673 741.424927,591.907227 731.691589,586.198364 
	C697.855042,566.352600 664.056885,546.441467 630.011841,526.273804 
	C631.166504,524.673889 632.365295,523.040100 633.968079,522.082642 
	C674.840820,497.666199 715.751892,473.313812 756.683044,448.995239 
	C757.883362,448.282104 759.373047,448.056122 761.005371,447.770111 
z"/>
<path fill="#FCFEFF" opacity="1.000000" stroke="none" 
	d="
M639.654541,947.955566 
	C639.650513,942.855408 639.650513,938.253662 639.650513,933.156372 
	C644.178223,933.156372 648.303894,932.718445 652.292236,933.271301 
	C656.896606,933.909607 658.807495,937.465698 658.926147,941.867126 
	C659.043762,946.232666 657.452148,950.005371 652.890381,950.914795 
	C649.222656,951.645935 645.316711,951.354736 641.533203,951.171143 
	C640.865906,951.138733 640.281372,949.403076 639.654541,947.955566 
z"/>
</svg>